<?xml version="1.0" encoding="UTF-8"?>
<svg version="1.1" xmlns="http://www.w3.org/2000/svg" width="512" height="512">
<path d="M0 0 C168.96 0 337.92 0 512 0 C512 168.96 512 337.92 512 512 C343.04 512 174.08 512 0 512 C0 343.04 0 174.08 0 0 Z " fill="#010101" transform="translate(0,0)"/>
<path d="M0 0 C39.6 0 79.2 0 120 0 C121.8152596 31.46449968 123.44617622 62.54280945 124 94 C100.9 94 77.8 94 54 94 C53 62 53 62 53 47 C52.01 47.495 52.01 47.495 51 48 C50.25683428 50.58754057 49.62978542 53.12320964 49.0625 55.75 C48.88847656 56.52206787 48.71445312 57.29413574 48.53515625 58.08959961 C48.18165589 59.65971955 47.83154374 61.23060625 47.48486328 62.80224609 C45.17971576 73.25085535 42.59562779 83.61748884 40 94 C21.19 94 2.38 94 -17 94 C-17 85.00481611 -17 85.00481611 -16.046875 81.07421875 C-15.8418335 80.20555176 -15.63679199 79.33688477 -15.42553711 78.44189453 C-15.20260986 77.53294434 -14.97968262 76.62399414 -14.75 75.6875 C-14.28667727 73.72030688 -13.82445541 71.75285418 -13.36328125 69.78515625 C-13.13205566 68.80820801 -12.90083008 67.83125977 -12.66259766 66.82470703 C-9.83349854 54.76403025 -7.50938914 42.64760837 -5.57006836 30.41259766 C-3.93806942 20.21954231 -1.9356148 10.16197772 0 0 Z " fill="#FCFCFC" transform="translate(338,131)"/>
<path d="M0 0 C38.94 0 77.88 0 118 0 C120.31 11.88 122.62 23.76 125 36 C127.21837684 47.08627517 129.44073894 58.17160048 131.68481445 69.25268555 C132.40568431 72.81508818 133.12303108 76.37818539 133.83984375 79.94140625 C134.05849594 81.0160463 134.27714813 82.09068634 134.50242615 83.19789124 C134.79887779 84.67496803 134.79887779 84.67496803 135.10131836 86.18188477 C135.27561874 87.04370865 135.44991913 87.90553253 135.62950134 88.79347229 C136 91 136 91 136 94 C117.19 94 98.38 94 79 94 C76.45881144 84.47054291 73.97193032 74.97691318 71.75 65.375 C71.3478125 63.67923828 71.3478125 63.67923828 70.9375 61.94921875 C70.68484375 60.85996094 70.4321875 59.77070313 70.171875 58.6484375 C69.9459668 57.68083496 69.72005859 56.71323242 69.48730469 55.71630859 C69.01398832 53.07797298 68.90879825 50.67342738 69 48 C68.34 48 67.68 48 67 48 C66.34 63.18 65.68 78.36 65 94 C42.23 94 19.46 94 -4 94 C-3.49945644 74.72907313 -2.90346471 55.46836808 -2.13104248 36.20651245 C-2.04414892 34.03884791 -1.95824129 31.87114361 -1.87335205 29.70339966 C-1.75216507 26.6237391 -1.62674206 23.54428016 -1.5 20.46484375 C-1.46458099 19.5556015 -1.42916199 18.64635925 -1.39266968 17.70956421 C-1.35590118 16.8411087 -1.31913269 15.9726532 -1.28125 15.07788086 C-1.25095703 14.33517441 -1.22066406 13.59246796 -1.18945312 12.82725525 C-0.90235157 8.54276863 -0.42727843 4.27278434 0 0 Z " fill="#FCFCFC" transform="translate(171,131)"/>
<path d="M0 0 C24.09 0 48.18 0 73 0 C73 18.87741537 70.25250869 37.95256421 58 53 C57.54367188 53.59425781 57.08734375 54.18851562 56.6171875 54.80078125 C54.07974985 58.01646482 51.35111623 60.64516157 48 63 C47.34 63 46.68 63 46 63 C46 63.66 46 64.32 46 65 C43.56686634 65.97081117 41.12933062 66.92650211 38.6875 67.875 C38.01654297 68.14441406 37.34558594 68.41382813 36.65429688 68.69140625 C26.00557584 72.79091388 15.63899839 73.30405424 4.3125 73.1875 C2.96484492 73.17861342 1.61718863 73.1699072 0.26953125 73.16137695 C-41.34549447 72.82725276 -41.34549447 72.82725276 -51 68 C-51.10933567 61.74326616 -50.7462839 55.78532578 -49.90625 49.58984375 C-49.79526978 48.73693253 -49.68428955 47.8840213 -49.56994629 47.00526428 C-49.21868223 44.3152699 -48.85948595 41.62640664 -48.5 38.9375 C-48.25858646 37.09967867 -48.01769619 35.26178853 -47.77734375 33.42382812 C-47.19093639 28.94840118 -46.59741907 24.47396975 -46 20 C-45.21463867 19.97494385 -44.42927734 19.9498877 -43.62011719 19.92407227 C-39.99663572 19.80667913 -36.37332532 19.68461408 -32.75 19.5625 C-31.51507813 19.52318359 -30.28015625 19.48386719 -29.0078125 19.44335938 C-25.33726812 19.31778812 -21.6690237 19.16374238 -18 19 C-16.28780273 18.94175049 -16.28780273 18.94175049 -14.54101562 18.88232422 C-13.48076172 18.82705566 -12.42050781 18.77178711 -11.328125 18.71484375 C-9.92675293 18.6528479 -9.92675293 18.6528479 -8.49707031 18.58959961 C-5.3847966 18.08571924 -5.3847966 18.08571924 -2 14 C-1.34 9.38 -0.68 4.76 0 0 Z " fill="#FBFBFB" transform="translate(84,297)"/>
<path d="M0 0 C24.42 0 48.84 0 74 0 C74 31.02 74 62.04 74 94 C49.58 94 25.16 94 0 94 C0 62.98 0 31.96 0 0 Z " fill="#FCFCFC" transform="translate(84,131)"/>
<path d="M0 0 C32.01 0 64.02 0 97 0 C97 5.67117571 96.48429655 9.5831903 94.875 14.8125 C90.28146103 30.50736986 86.84920369 46.5484015 83.54296875 62.55859375 C83 65 83 65 82 68 C59.23 68 36.46 68 13 68 C11.040625 58.450625 9.08125 48.90125 7.0625 39.0625 C6.13642944 34.56508179 6.13642944 34.56508179 5.19165039 29.97680664 C4.70166681 27.579655 4.2119822 25.18244222 3.72265625 22.78515625 C3.46867065 21.55728394 3.21468506 20.32941162 2.95300293 19.06433105 C2.70949097 17.86755737 2.465979 16.67078369 2.21508789 15.43774414 C2.00412979 14.40960098 1.79317169 13.38145782 1.57582092 12.32215881 C0.86864464 8.24215439 0.45727899 4.11551094 0 0 Z " fill="#FBFBFB" transform="translate(265,297)"/>
<path d="M0 0 C22.77 0 45.54 0 69 0 C69.33 6.765 69.66 13.53 70 20.5 C70.15662109 23.61791992 70.15662109 23.61791992 70.31640625 26.79882812 C70.96475849 40.58403181 71 54.16155253 71 68 C48.23 68 25.46 68 2 68 C1.27069353 59.2483223 0.72142432 50.63476359 0.4375 41.875 C0.39431641 40.71613281 0.35113281 39.55726563 0.30664062 38.36328125 C-0.12101658 25.56071791 0 12.83394456 0 0 Z " fill="#FEFEFE" transform="translate(396,297)"/>
<path d="M0 0 C22.77 0 45.54 0 69 0 C69 9.0175018 68.92479069 17.96112302 68.5625 26.9609375 C68.52318359 27.98872314 68.48386719 29.01650879 68.44335938 30.07543945 C68.29849956 33.84207333 68.14899422 37.6085274 68 41.375 C67.67 49.83125 67.34 58.2875 67 67 C44.23 67 21.46 67 -2 67 C-2 49.67053547 -2 49.67053547 -1.81640625 42.71484375 C-1.79658188 41.92582169 -1.77675751 41.13679962 -1.7563324 40.3238678 C-1.7144444 38.68325271 -1.67156657 37.0426626 -1.62768555 35.40209961 C-1.56248059 32.93676615 -1.50277734 30.47133829 -1.44335938 28.00585938 C-1.40137495 26.38801215 -1.35906803 24.77017326 -1.31640625 23.15234375 C-1.29969376 22.44045395 -1.28298126 21.72856415 -1.26576233 20.99510193 C-1.06860244 13.9636962 -0.50295607 7.04138498 0 0 Z " fill="#FCFCFC" transform="translate(164,297)"/>
<path d="M0 0 C0 0.66 0 1.32 0 2 C0.721875 2.04125 1.44375 2.0825 2.1875 2.125 C6.2685215 3.39465113 7.48531026 5.57722785 10 9 C11.7316936 12.4633872 11.34018962 16.20656477 11 20 C9.22985417 25.3104375 5.94837741 29.35966795 1 32 C-3.78994135 33.07077675 -7.98704213 33.01625058 -12.4140625 30.78125 C-15.91879557 28.28333115 -18.45394339 26.09076223 -20 22 C-20.70723574 17.17855638 -21.11754127 12.20425382 -18.8671875 7.765625 C-13.58138471 1.28982472 -8.11724398 -0.41985745 0 0 Z " fill="#060606" transform="translate(422,245)"/>
<path d="M0 0 C13.9 0 13.9 0 18 3 C22.21380354 7.31742166 24.41921227 10.58694606 24.3515625 16.765625 C23.72417435 20.75302525 21.66336262 24.01423033 19 27 C16.34416632 28.64159798 15.18481035 29 12 29 C12 29.66 12 30.32 12 31 C8.04 31 4.08 31 0 31 C0 20.77 0 10.54 0 0 Z " fill="#0D0D0D" transform="translate(146,246)"/>
<path d="M0 0 C12 0 12 0 17 3 C18 4 18 4 18.1875 6.8125 C18.00782439 9.86698544 17.57664404 11.43795344 16 14 C16.65484375 14.38800781 17.3096875 14.77601563 17.984375 15.17578125 C20 17 20 17 20.390625 19.48046875 C20.32101562 20.82044922 20.32101562 20.82044922 20.25 22.1875 C20.21390625 23.08855469 20.1778125 23.98960937 20.140625 24.91796875 C20.07101562 25.94857422 20.07101562 25.94857422 20 27 C18.68 27.33 17.36 27.66 16 28 C16 28.66 16 29.32 16 30 C11.22041378 32.38979311 5.34373985 31 0 31 C0 20.77 0 10.54 0 0 Z " fill="#D5D5D5" transform="translate(302,246)"/>
<path d="M0 0 C12 0 12 0 17 3 C19.34168764 6.51253146 19.49623677 7.86469356 19 12 C16.09076433 16.67555732 16.09076433 16.67555732 12.859375 17.63671875 C12.24578125 17.75660156 11.6321875 17.87648438 11 18 C11.5053125 18.69867188 12.010625 19.39734375 12.53125 20.1171875 C13.1809375 21.02726562 13.830625 21.93734375 14.5 22.875 C15.1496875 23.77992188 15.799375 24.68484375 16.46875 25.6171875 C18 28 18 28 18 30 C15.13567651 29.64824097 14.15570407 29.17755728 12.21875 26.96875 C11.07291667 25.32291667 9.92708333 23.67708333 8.78125 22.03125 C6.9837519 19.59254093 6.9837519 19.59254093 3 19 C3 22.96 3 26.92 3 31 C2.01 31 1.02 31 0 31 C0 20.77 0 10.54 0 0 Z " fill="#EAEAEA" transform="translate(371,246)"/>
<path d="M0 0 C4.29919234 4.29919234 5.65741733 9.90513052 7.15625 15.6328125 C8.06923171 18.19423341 9.33584599 19.87039941 11 22 C11.23187012 21.40461426 11.46374023 20.80922852 11.70263672 20.19580078 C12.75468251 17.50338374 13.81473292 14.81418952 14.875 12.125 C15.23980469 11.18785156 15.60460937 10.25070313 15.98046875 9.28515625 C16.33496094 8.38925781 16.68945312 7.49335938 17.0546875 6.5703125 C17.37937012 5.74289551 17.70405273 4.91547852 18.03857422 4.06298828 C19 2 19 2 21 0 C27 23.21359223 27 23.21359223 27 31 C26.01 31 25.02 31 24 31 C23.58427734 29.19402344 23.58427734 29.19402344 23.16015625 27.3515625 C22.79440321 25.77601093 22.42851055 24.20049177 22.0625 22.625 C21.88009766 21.8309375 21.69769531 21.036875 21.50976562 20.21875 C21.33251953 19.45820313 21.15527344 18.69765625 20.97265625 17.9140625 C20.72914429 16.8614624 20.72914429 16.8614624 20.48071289 15.78759766 C20.0411926 13.91605426 20.0411926 13.91605426 19 12 C18.76216797 12.92619141 18.76216797 12.92619141 18.51953125 13.87109375 C16.79195772 20.14189933 14.38825255 25.45558674 11 31 C7.93502636 29.46751318 7.43251626 27.08541963 6 24 C5.46439453 22.88238281 5.46439453 22.88238281 4.91796875 21.7421875 C4.55316406 20.96101563 4.18835938 20.17984375 3.8125 19.375 C3.46832031 18.64023437 3.12414062 17.90546875 2.76953125 17.1484375 C2 15 2 15 2 11 C1.34 11 0.68 11 0 11 C-0.04898438 11.60585938 -0.09796875 12.21171875 -0.1484375 12.8359375 C-0.6982478 18.99760464 -1.67609049 24.95885951 -3 31 C-4.32 31.33 -5.64 31.66 -7 32 C-5.87092658 24.55702916 -4.46988099 17.18136827 -2.9375 9.8125 C-2.7631543 8.96260498 -2.58880859 8.11270996 -2.40917969 7.23706055 C-1.12008893 1.12008893 -1.12008893 1.12008893 0 0 Z " fill="#D8D8D8" transform="translate(226,245)"/>
<path d="M0 0 C0 0.66 0 1.32 0 2 C0.721875 2.04125 1.44375 2.0825 2.1875 2.125 C6.2685215 3.39465113 7.48531026 5.57722785 10 9 C11.7316936 12.4633872 11.34018962 16.20656477 11 20 C9.22985417 25.3104375 5.94837741 29.35966795 1 32 C-3.78994135 33.07077675 -7.98704213 33.01625058 -12.4140625 30.78125 C-15.91879557 28.28333115 -18.45394339 26.09076223 -20 22 C-20.70723574 17.17855638 -21.11754127 12.20425382 -18.8671875 7.765625 C-13.58138471 1.28982472 -8.11724398 -0.41985745 0 0 Z M-14.7421875 7.95703125 C-17.26875681 12.06074476 -16.86608703 16.40360111 -16 21 C-14.96010296 23.68596521 -14.03923761 24.84747141 -12 27 C-7.80068925 28.41737742 -3.37354783 28.57793311 1 28 C4.33600367 25.94161475 5.8262176 24.2606736 8 21 C8.45705286 15.42395508 8.22168614 11.7769829 5 7 C1.44599865 3.86411645 -2.09767619 3.33832007 -6.70703125 3.5390625 C-10.12994894 4.22714476 -12.25833219 5.52516361 -14.7421875 7.95703125 Z " fill="#B8B8B8" transform="translate(422,245)"/>
<path d="M0 0 C0.66 0 1.32 0 2 0 C3.44058722 3.33200731 4.87689798 6.66584213 6.3125 10 C6.71662109 10.93457031 7.12074219 11.86914062 7.53710938 12.83203125 C14 27.85956555 14 27.85956555 14 31 C12.125 30.75 12.125 30.75 10 30 C8.27898465 27.41847698 8 26.15081975 8 23 C3.38 23 -1.24 23 -6 23 C-6.99 25.97 -7.98 28.94 -9 32 C-9.99 32 -10.98 32 -12 32 C-11.14927319 28.02994155 -9.68283645 24.28748522 -8.25 20.5 C-7.98558105 19.79746094 -7.72116211 19.09492188 -7.44873047 18.37109375 C-5.10461488 12.18745429 -2.60233718 6.07979659 0 0 Z " fill="#E3E3E3" transform="translate(344,245)"/>
<path d="M0 0 C13.9 0 13.9 0 18 3 C22.21380354 7.31742166 24.41921227 10.58694606 24.3515625 16.765625 C23.72417435 20.75302525 21.66336262 24.01423033 19 27 C16.34416632 28.64159798 15.18481035 29 12 29 C12 29.66 12 30.32 12 31 C8.04 31 4.08 31 0 31 C0 20.77 0 10.54 0 0 Z M3 3 C3 10.92 3 18.84 3 27 C11.82175872 27.38030446 11.82175872 27.38030446 18 23 C20.1633006 20.25981924 20.92352448 18.51347849 21.4375 15.0625 C20.74462837 10.21239857 18.48521563 7.27304197 14.8125 4.125 C11.11214416 2.44291399 11.11214416 2.44291399 3 3 Z " fill="#C7C7C7" transform="translate(146,246)"/>
<path d="M0 0 C3.97482462 1.32494154 4.64280413 3.12470843 6.875 6.625 C9.810267 11.19480785 12.83304567 15.56626393 16 20 C16.33 13.4 16.66 6.8 17 0 C17.99 0 18.98 0 20 0 C20 10.23 20 20.46 20 31 C14.375 25.375 14.375 25.375 12.10546875 22.01171875 C11.67129639 21.37451904 11.23712402 20.73731934 10.78979492 20.08081055 C10.2610376 19.29101807 9.73228027 18.50122559 9.1875 17.6875 C7.475625 15.150625 5.76375 12.61375 4 10 C3.67 16.93 3.34 23.86 3 31 C2.01 31 1.02 31 0 31 C0 20.77 0 10.54 0 0 Z " fill="#DFDFDF" transform="translate(111,246)"/>
<path d="M0 0 C22.77 0 45.54 0 69 0 C69.61821584 11.74610102 70.14561277 23.27008214 70 35 C69.67 35 69.34 35 69 35 C68.17648136 28.61773055 67.87913782 22.43255401 68 16 C67.01 16 66.02 16 65 16 C65 15.34 65 14.68 65 14 C65.66 13.67 66.32 13.34 67 13 C67.33 9.04 67.66 5.08 68 1 C45.89 1 23.78 1 1 1 C1.65515745 17.48278808 1.65515745 17.48278808 2.31640625 33.96533203 C2.39865436 36.06281703 2.48069858 38.16031003 2.5625 40.2578125 C2.60568359 41.3089624 2.64886719 42.3601123 2.69335938 43.44311523 C2.99657353 51.31404937 3 59.10725507 3 67 C25.44 67 47.88 67 71 67 C71 67.33 71 67.66 71 68 C48.23 68 25.46 68 2 68 C1.27069353 59.2483223 0.72142432 50.63476359 0.4375 41.875 C0.39431641 40.71613281 0.35113281 39.55726563 0.30664062 38.36328125 C-0.12101658 25.56071791 0 12.83394456 0 0 Z " fill="#A6A6A6" transform="translate(396,297)"/>
<path d="M0 0 C0.99 0 1.98 0 3 0 C3.33 7.92 3.66 15.84 4 24 C8.25786569 26.12893285 10.33888024 26.33899053 15 26 C15.99 25.34 16.98 24.68 18 24 C18.50960691 21.48614741 18.50960691 21.48614741 18.51171875 18.5546875 C18.54716797 17.47832031 18.58261719 16.40195312 18.61914062 15.29296875 C18.64169922 14.16503906 18.66425781 13.03710938 18.6875 11.875 C18.72166016 10.73933594 18.75582031 9.60367188 18.79101562 8.43359375 C18.87369502 5.62249421 18.94277937 2.81171447 19 0 C20.32 0 21.64 0 23 0 C23.11674705 3.70806596 23.18743274 7.4156554 23.25 11.125 C23.28351563 12.17171875 23.31703125 13.2184375 23.3515625 14.296875 C23.43048886 20.53205705 23.2738708 24.31104102 19 29 C14.7741215 31.81725233 10.96375312 31.79958384 6 31 C3.17575712 28.80977082 1.58491397 27.16982793 0 24 C-0.08471364 22.18658158 -0.10721083 20.37005839 -0.09765625 18.5546875 C-0.09443359 17.47832031 -0.09121094 16.40195312 -0.08789062 15.29296875 C-0.07951172 14.16503906 -0.07113281 13.03710938 -0.0625 11.875 C-0.05798828 10.73933594 -0.05347656 9.60367188 -0.04882812 8.43359375 C-0.03701615 5.62234362 -0.02054507 2.8111977 0 0 Z " fill="#A9A9A9" transform="translate(265,246)"/>
<path d="M0 0 C1.32 0 2.64 0 4 0 C4.01458252 0.71655762 4.02916504 1.43311523 4.04418945 2.17138672 C4.11849 5.40647983 4.21520861 8.64052019 4.3125 11.875 C4.33505859 13.00292969 4.35761719 14.13085938 4.38085938 15.29296875 C4.41630859 16.36933594 4.45175781 17.44570313 4.48828125 18.5546875 C4.51446533 19.54968262 4.54064941 20.54467773 4.56762695 21.56982422 C4.78165161 22.77276123 4.78165161 22.77276123 5 24 C7.96917403 25.97944936 8.65702279 26.29350581 12 26.3125 C13.0209375 26.33763672 13.0209375 26.33763672 14.0625 26.36328125 C16.64756664 25.87858126 17.38917849 25.06655661 19 23 C19.5040817 20.49126841 19.5040817 20.49126841 19.51171875 17.67578125 C19.54716797 16.64775391 19.58261719 15.61972656 19.61914062 14.56054688 C19.64169922 13.48869141 19.66425781 12.41683594 19.6875 11.3125 C19.72166016 10.22904297 19.75582031 9.14558594 19.79101562 8.02929688 C19.8735456 5.3529678 19.94267937 2.67696841 20 0 C20.99 0 21.98 0 23 0 C23.11701204 3.68722927 23.18752045 7.37397542 23.25 11.0625 C23.30027344 12.62000977 23.30027344 12.62000977 23.3515625 14.20898438 C23.43425551 20.72105857 22.9446172 24.73320556 19 30 C16.49349848 31.25325076 14.54895083 31.34705187 11.75 31.5 C10.81671875 31.5721875 9.8834375 31.644375 8.921875 31.71875 C5.14587105 30.78989341 3.53165955 29.35622361 1.16015625 26.32177734 C-1.17065732 21.65720726 -0.61063172 16.65274925 -0.375 11.5625 C-0.34792969 10.44939453 -0.32085937 9.33628906 -0.29296875 8.18945312 C-0.22262083 5.4576088 -0.12424271 2.72983536 0 0 Z " fill="#C3C3C3" transform="translate(73,246)"/>
<path d="M0 0 C0.99 0 1.98 0 3 0 C3 4.29 3 8.58 3 13 C3.66 13 4.32 13 5 13 C5.20625 12.34 5.4125 11.68 5.625 11 C7.51152871 6.88393737 10.20567979 3.5412297 13 0 C14.32 0.33 15.64 0.66 17 1 C16.43410156 1.73605469 15.86820312 2.47210938 15.28515625 3.23046875 C14.55167969 4.20628906 13.81820313 5.18210938 13.0625 6.1875 C11.96615234 7.63189453 11.96615234 7.63189453 10.84765625 9.10546875 C9.01139124 11.98215453 8.00541981 13.59635692 8 17 C9.58705985 19.63759663 9.58705985 19.63759663 11.875 22.0625 C16.463054 27.25003841 16.463054 27.25003841 17 31 C15.68 31 14.36 31 13 31 C11.1484375 28.62890625 11.1484375 28.62890625 9.375 25.5625 C7.33184102 21.61246845 7.33184102 21.61246845 4 19 C4 22.63 4 26.26 4 30 C2.68 30.33 1.36 30.66 0 31 C0 20.77 0 10.54 0 0 Z " fill="#F1F1F1" transform="translate(447,246)"/>
<path d="M0 0 C12 0 12 0 15 2 C11.64672361 4.23551759 11.09256343 4.17283528 7.3125 3.625 C5.1778125 3.315625 5.1778125 3.315625 3 3 C3 6.3 3 9.6 3 13 C5.31 13 7.62 13 10 13 C9.67 13.66 9.34 14.32 9 15 C7.02 15 5.04 15 3 15 C3 19.29 3 23.58 3 28 C6.3 28 9.6 28 13 28 C12.67 28.66 12.34 29.32 12 30 C8.04 30 4.08 30 0 30 C0 20.1 0 10.2 0 0 Z " fill="#F2F2F2" transform="translate(302,246)"/>
<path d="M0 0 C1.32 0 2.64 0 4 0 C4.11608127 4.41644598 4.1872132 8.83250017 4.25 13.25 C4.30027344 15.13138672 4.30027344 15.13138672 4.3515625 17.05078125 C4.36445312 18.25605469 4.37734375 19.46132813 4.390625 20.703125 C4.41157227 21.81333008 4.43251953 22.92353516 4.45410156 24.06738281 C3.89749541 27.66198122 2.84849335 28.81187494 0 31 C-2.359375 31.390625 -2.359375 31.390625 -4.75 31.25 C-5.54921875 31.21390625 -6.3484375 31.1778125 -7.171875 31.140625 C-7.77515625 31.09421875 -8.3784375 31.0478125 -9 31 C-9.33 29.68 -9.66 28.36 -10 27 C-7.03 26.67 -4.06 26.34 -1 26 C-0.67 17.42 -0.34 8.84 0 0 Z " fill="#BFBFBF" transform="translate(56,246)"/>
<path d="M0 0 C7.51953125 -0.390625 7.51953125 -0.390625 10 0 C12.17229869 2.23826872 12.92175274 3.46531037 13.375 6.5625 C12.9207987 9.51480845 12.35899576 10.21923964 10 12 C7.51953125 12.29296875 7.51953125 12.29296875 4.8125 12.1875 C3.224375 12.125625 1.63625 12.06375 0 12 C0 8.04 0 4.08 0 0 Z " fill="#0A0A0A" transform="translate(374,249)"/>
<path d="M0 0 C9.625 -0.25 9.625 -0.25 13 2 C13.4375 4.9375 13.4375 4.9375 13 8 C11.5625 9.875 11.5625 9.875 9 11 C5.95209387 11.23606846 3.06696813 11.13530742 0 11 C0 7.37 0 3.74 0 0 Z " fill="#0B0B0B" transform="translate(306,262)"/>
<path d="M0 0 C5.2518167 -0.315109 8.54814877 0.1310292 13 3 C17.23461468 7.69241086 18.3041306 10.5029599 18.21484375 16.68359375 C17.76943079 21.48595532 15.85567238 24.24382441 12.3125 27.375 C11.549375 27.91125 10.78625 28.4475 10 29 C10 26 10 26 12 23.3125 C14.94635214 18.43260426 14.64249885 14.82699492 13.375 9.25 C11.41551398 6.04356833 9.30874115 4.74801419 6 3 C2.26774656 2.20317197 2.26774656 2.20317197 -1 2 C-0.67 1.34 -0.34 0.68 0 0 Z " fill="#E6E6E6" transform="translate(415,246)"/>
<path d="M0 0 C2.50132183 2.50132183 2.61043835 4.07426844 3.2890625 7.5234375 C3.50820312 8.626875 3.72734375 9.7303125 3.953125 10.8671875 C4.17484375 12.02476562 4.3965625 13.18234375 4.625 14.375 C4.85445312 15.52484375 5.08390625 16.6746875 5.3203125 17.859375 C7 26.43777902 7 26.43777902 7 31 C6.01 31 5.02 31 4 31 C3.74605469 29.80761719 3.49210938 28.61523438 3.23046875 27.38671875 C2.88339218 25.82018396 2.53570393 24.25378459 2.1875 22.6875 C2.02185547 21.90181641 1.85621094 21.11613281 1.68554688 20.30664062 C1.4293457 19.1706543 1.4293457 19.1706543 1.16796875 18.01171875 C1.01610107 17.31522217 0.8642334 16.61872559 0.70776367 15.90112305 C-0.12648605 13.66024599 -1.25918791 12.60613527 -3 11 C-3.33 10.34 -3.66 9.68 -4 9 C-3.22265625 6.8359375 -3.22265625 6.8359375 -2.0625 4.375 C-1.68222656 3.55773437 -1.30195313 2.74046875 -0.91015625 1.8984375 C-0.60980469 1.27195313 -0.30945313 0.64546875 0 0 Z " fill="#DBDBDB" transform="translate(246,245)"/>
<path d="M0 0 C0.99 0 1.98 0 3 0 C3 10.23 3 20.46 3 31 C-2.625 25.375 -2.625 25.375 -4 21 C-3.01 20.67 -2.02 20.34 -1 20 C-0.67 13.4 -0.34 6.8 0 0 Z " fill="#F3F3F3" transform="translate(128,246)"/>
<path d="M0 0 C0 0.33 0 0.66 0 1 C-2.31 1.33 -4.62 1.66 -7 2 C-4.03 2.495 -4.03 2.495 -1 3 C-1 3.33 -1 3.66 -1 4 C-1.66386719 4.08636719 -2.32773437 4.17273438 -3.01171875 4.26171875 C-7.27956166 4.94083536 -10.40880903 5.6139161 -14.0625 8 C-16.77111775 12.19398878 -16.89511466 16.08945907 -17 21 C-17.99 21.33 -18.98 21.66 -20 22 C-21.03239711 10.35685484 -21.03239711 10.35685484 -17.375 5.9375 C-11.924624 0.71634542 -7.33599122 -0.37944782 0 0 Z " fill="#BCBCBC" transform="translate(422,245)"/>
<path d="M0 0 C6.8359375 -0.1953125 6.8359375 -0.1953125 9 0 C11 2 11 2 11.125 5.125 C11.08375 6.07375 11.0425 7.0225 11 8 C7.57067929 9.71466036 3.78283935 9.05404056 0 9 C0 6.03 0 3.06 0 0 Z " fill="#0D0D0D" transform="translate(305,249)"/>
<path d="M0 0 C0.99 0 1.98 0 3 0 C3 10.23 3 20.46 3 31 C2.01 31 1.02 31 0 31 C0 20.77 0 10.54 0 0 Z " fill="#DDDDDD" transform="translate(183,246)"/>
<path d="M0 0 C0.99 0 1.98 0 3 0 C3.08736736 3.72901814 3.14051482 7.45777165 3.1875 11.1875 C3.22520508 12.77014648 3.22520508 12.77014648 3.26367188 14.38476562 C3.27817383 15.91713867 3.27817383 15.91713867 3.29296875 17.48046875 C3.3086792 18.41785889 3.32438965 19.35524902 3.34057617 20.32104492 C2.93513955 23.51018908 1.85974809 25.40458556 0 28 C-0.33 28 -0.66 28 -1 28 C-0.67 18.76 -0.34 9.52 0 0 Z " fill="#F8F8F8" transform="translate(93,246)"/>
<path d="M0 0 C0.66 0 1.32 0 2 0 C2.67305018 1.60149886 3.33822227 3.20631029 4 4.8125 C4.37125 5.70582031 4.7425 6.59914063 5.125 7.51953125 C6 10 6 10 6 13 C2.7 13 -0.6 13 -4 13 C-3.52140759 11.39566191 -3.04210442 9.79153584 -2.5625 8.1875 C-2.29566406 7.29417969 -2.02882813 6.40085937 -1.75390625 5.48046875 C-1.19612127 3.64526945 -0.60655425 1.81966274 0 0 Z " fill="#141414" transform="translate(344,252)"/>
<path d="M0 0 C0.99 0 1.98 0 3 0 C3.33 8.25 3.66 16.5 4 25 C3.01 25.33 2.02 25.66 1 26 C-0.30475618 23.39048764 -0.11301572 21.47298715 -0.09765625 18.5546875 C-0.09443359 17.47832031 -0.09121094 16.40195312 -0.08789062 15.29296875 C-0.07951172 14.16503906 -0.07113281 13.03710938 -0.0625 11.875 C-0.05798828 10.73933594 -0.05347656 9.60367188 -0.04882812 8.43359375 C-0.03701615 5.62234362 -0.02054507 2.8111977 0 0 Z " fill="#E1E1E1" transform="translate(265,246)"/>
<path d="M0 0 C0.66 0 1.32 0 2 0 C2.53256503 5.9647283 1.85244501 9.4025087 -1.5546875 14.3671875 C-3.44402505 16.5016283 -5.23689385 17.36843288 -8 18 C-8.33 17.67 -8.66 17.34 -9 17 C-10.68608966 16.92794489 -12.37500659 16.91613932 -14.0625 16.9375 C-14.98160156 16.94652344 -15.90070313 16.95554687 -16.84765625 16.96484375 C-17.55792969 16.97644531 -18.26820313 16.98804688 -19 17 C-19 16.67 -19 16.34 -19 16 C-18.41992188 15.97421875 -17.83984375 15.9484375 -17.2421875 15.921875 C-11.79133645 15.52610364 -8.28952531 14.66178989 -4 11 C-1.74679754 7.73285644 -1.02394413 3.80322105 0 0 Z " fill="#DADADA" transform="translate(168,257)"/>
<path d="M0 0 C0.99 0 1.98 0 3 0 C3.0289337 3.79165074 3.04677601 7.58327327 3.0625 11.375 C3.07087891 12.45523437 3.07925781 13.53546875 3.08789062 14.6484375 C3.09111328 15.6796875 3.09433594 16.7109375 3.09765625 17.7734375 C3.10289307 18.72653809 3.10812988 19.67963867 3.11352539 20.66162109 C3 23 3 23 2 25 C1.34 25 0.68 25 0 25 C0 16.75 0 8.5 0 0 Z " fill="#E3E3E3" transform="translate(285,246)"/>
<path d="M0 0 C1.921875 2.21484375 1.921875 2.21484375 3.75 4.9375 C4.36359375 5.83339844 4.9771875 6.72929687 5.609375 7.65234375 C7 10 7 10 7 12 C4.13567651 11.64824097 3.15570407 11.17755728 1.21875 8.96875 C0.07291667 7.32291667 -1.07291667 5.67708333 -2.21875 4.03125 C-4.0162481 1.59254093 -4.0162481 1.59254093 -8 1 C-8 4.96 -8 8.92 -8 13 C-8.99 12.67 -9.98 12.34 -11 12 C-10.34 12 -9.68 12 -9 12 C-9 8.04 -9 4.08 -9 0 C-2.75544493 -1.24891101 -2.75544493 -1.24891101 0 0 Z " fill="#B6B6B6" transform="translate(382,264)"/>
<path d="M0 0 C0.33 0 0.66 0 1 0 C1.33 5.28 1.66 10.56 2 16 C2.99 16.33 3.98 16.66 5 17 C4.67 21.29 4.34 25.58 4 30 C2.68 30.33 1.36 30.66 0 31 C0 20.77 0 10.54 0 0 Z " fill="#A7A7A7" transform="translate(447,246)"/>
<path d="M0 0 C0.33 0 0.66 0 1 0 C0.56699236 6.81987029 -0.90787824 11.91643021 -4 18 C-4.33 17.01 -4.66 16.02 -5 15 C-5.99 15 -6.98 15 -8 15 C-8.33 13.02 -8.66 11.04 -9 9 C-8.01 9.99 -7.02 10.98 -6 12 C-5.73445312 11.30132812 -5.46890625 10.60265625 -5.1953125 9.8828125 C-4.66550781 8.51769531 -4.66550781 8.51769531 -4.125 7.125 C-3.77695313 6.22007812 -3.42890625 5.31515625 -3.0703125 4.3828125 C-2 2 -2 2 0 0 Z " fill="#CFCFCF" transform="translate(243,255)"/>
<path d="M0 0 C2.73949307 3.28739169 5.26584559 6.70565274 7.75 10.1875 C8.67039062 11.47720703 8.67039062 11.47720703 9.609375 12.79296875 C11 15 11 15 11 17 C9.68 17 8.36 17 7 17 C5.11328125 14.734375 5.11328125 14.734375 3.3125 11.75 C2.71050781 10.77546875 2.10851562 9.8009375 1.48828125 8.796875 C0.23099402 6.43409901 -0.65594865 4.63578323 -1 2 C-0.67 1.34 -0.34 0.68 0 0 Z " fill="#DBDBDB" transform="translate(453,260)"/>
<path d="M0 0 C2.97 0 5.94 0 9 0 C9 0.33 9 0.66 9 1 C6.36 1 3.72 1 1 1 C1 4.63 1 8.26 1 12 C6.445 11.505 6.445 11.505 12 11 C12.33 12.32 12.66 13.64 13 15 C9.99686252 16.50156874 7.20932478 16.09281204 3.875 16.0625 C2.59367187 16.05347656 1.31234375 16.04445313 -0.0078125 16.03515625 C-1.48894531 16.01775391 -1.48894531 16.01775391 -3 16 C-3 15.67 -3 15.34 -3 15 C2.94 14.505 2.94 14.505 9 14 C6.03 13.67 3.06 13.34 0 13 C0 8.71 0 4.42 0 0 Z " fill="#838383" transform="translate(305,261)"/>
<path d="M0 0 C0.33 0 0.66 0 1 0 C1.33 7.92 1.66 15.84 2 24 C5.63 24 9.26 24 13 24 C13 24.66 13 25.32 13 26 C11 27 11 27 0 27 C0 18.09 0 9.18 0 0 Z " fill="#FCFCFC" transform="translate(147,249)"/>
<path d="M0 0 C1.32 0.33 2.64 0.66 4 1 C2.71344735 2.81613362 1.42060005 4.62780954 0.125 6.4375 C-0.95394531 7.95150391 -0.95394531 7.95150391 -2.0546875 9.49609375 C-4 12 -4 12 -6 13 C-6.66 12.34 -7.32 11.68 -8 11 C-5.36 7.37 -2.72 3.74 0 0 Z " fill="#D8D8D8" transform="translate(460,246)"/>
<path d="M0 0 C1.55078125 1.609375 1.55078125 1.609375 3 4 C2.85546875 7.015625 2.85546875 7.015625 2.1875 10.25 C1.97480469 11.32765625 1.76210937 12.4053125 1.54296875 13.515625 C1.36378906 14.33546875 1.18460938 15.1553125 1 16 C-0.32 16.33 -1.64 16.66 -3 17 C-2.68853528 15.10399631 -2.37578283 13.20820413 -2.0625 11.3125 C-1.88847656 10.25675781 -1.71445313 9.20101563 -1.53515625 8.11328125 C-1.06832879 5.39750396 -0.55577384 2.69875765 0 0 Z " fill="#CBCBCB" transform="translate(222,260)"/>
<path d="M0 0 C0.66 0 1.32 0 2 0 C2.315109 5.2518167 1.8689708 8.54814877 -1 13 C-3.6875 15.375 -3.6875 15.375 -6 17 C-6 13.60776644 -5.44197396 12.88691444 -3.5625 10.1875 C-1.34381449 6.796797 -0.30803112 4.10708158 0 0 Z " fill="#F0F0F0" transform="translate(431,258)"/>
<path d="M0 0 C0.33 0 0.66 0 1 0 C2.06996173 9.01824887 2.10234659 17.93664124 2 27 C1.67 27 1.34 27 1 27 C0.17648136 20.61773055 -0.12086218 14.43255401 0 8 C-0.99 8 -1.98 8 -3 8 C-3 7.34 -3 6.68 -3 6 C-2.34 5.67 -1.68 5.34 -1 5 C-0.34444881 2.47266765 -0.34444881 2.47266765 0 0 Z " fill="#D1D1D1" transform="translate(464,305)"/>
<path d="M0 0 C2.7710688 2.34591852 3.52059284 4.14776201 4.1875 7.6875 C4.34605469 8.49574219 4.50460937 9.30398438 4.66796875 10.13671875 C4.77753906 10.75160156 4.88710938 11.36648438 5 12 C3.109375 11.78515625 3.109375 11.78515625 1 11 C-0.046875 8.93359375 -0.046875 8.93359375 -0.75 6.4375 C-0.99234375 5.61121094 -1.2346875 4.78492188 -1.484375 3.93359375 C-1.65453125 3.29550781 -1.8246875 2.65742188 -2 2 C-1.34 1.34 -0.68 0.68 0 0 Z " fill="#C0C0C0" transform="translate(353,264)"/>
<path d="M0 0 C0 1.65 0 3.3 0 5 C-2.64458379 6.32229189 -4.67761301 6.09677194 -7.625 6.0625 C-8.62789063 6.05347656 -9.63078125 6.04445313 -10.6640625 6.03515625 C-11.43492188 6.02355469 -12.20578125 6.01195312 -13 6 C-13.33 5.34 -13.66 4.68 -14 4 C-10.7 4.33 -7.4 4.66 -4 5 C-4 4.34 -4 3.68 -4 3 C-6.31 3 -8.62 3 -11 3 C-11 2.67 -11 2.34 -11 2 C-9.35440244 1.66550467 -7.70851502 1.33243501 -6.0625 1 C-4.68771484 0.7215625 -4.68771484 0.7215625 -3.28515625 0.4375 C-1 0 -1 0 0 0 Z " fill="#A5A5A5" transform="translate(92,271)"/>
<path d="M0 0 C0.33 0 0.66 0 1 0 C1.25398309 4.29057953 1.47398533 8.58223134 1.6875 12.875 C1.76033203 14.09832031 1.83316406 15.32164062 1.90820312 16.58203125 C1.96298828 17.74863281 2.01777344 18.91523438 2.07421875 20.1171875 C2.13182373 21.19597168 2.18942871 22.27475586 2.2487793 23.38623047 C2.12563354 24.68004639 2.12563354 24.68004639 2 26 C1.01 26.66 0.02 27.32 -1 28 C-0.67 18.76 -0.34 9.52 0 0 Z " fill="#DADADA" transform="translate(93,246)"/>
<path d="M0 0 C0.66 1.32 1.32 2.64 2 4 C0.02 4.99 -1.96 5.98 -4 7 C-4.33 6.67 -4.66 6.34 -5 6 C-6.68608966 5.92794489 -8.37500659 5.91613932 -10.0625 5.9375 C-10.98160156 5.94652344 -11.90070313 5.95554687 -12.84765625 5.96484375 C-13.55792969 5.97644531 -14.26820313 5.98804688 -15 6 C-15 5.67 -15 5.34 -15 5 C-14.12988281 4.96132813 -14.12988281 4.96132813 -13.2421875 4.921875 C-7.6291606 4.51432849 -4.41122445 3.50635789 0 0 Z " fill="#C7C7C7" transform="translate(164,268)"/>
<path d="M0 0 C0.99 0.33 1.98 0.66 3 1 C2.01 3.97 1.02 6.94 0 10 C-0.99 10 -1.98 10 -3 10 C-2.21302675 6.58978257 -1.12880057 3.31114834 0 0 Z " fill="#D0D0D0" transform="translate(335,267)"/>
<path d="M0 0 C0.66 0 1.32 0 2 0 C2.33 2.31 2.66 4.62 3 7 C3.99 7 4.98 7 6 7 C6 8.65 6 10.3 6 12 C5.01 12 4.02 12 3 12 C2.49166409 10.75336669 1.99368855 9.50250613 1.5 8.25 C1.2215625 7.55390625 0.943125 6.8578125 0.65625 6.140625 C0 4 0 4 0 0 Z " fill="#EEEEEE" transform="translate(232,263)"/>
<path d="M0 0 C3.88862987 1.26117725 5.89375599 2.45264167 8 6 C8 6.66 8 7.32 8 8 C4.82461668 7.65978036 3.97723135 6.97533396 1.75 4.5625 C0 2 0 2 0 0 Z " fill="#E4E4E4" transform="translate(381,268)"/>
<path d="M0 0 C0.66 0 1.32 0 2 0 C2 2.64 2 5.28 2 8 C1.34 7.67 0.68 7.34 0 7 C-0.66 8.65 -1.32 10.3 -2 12 C-3.12377697 8.69564916 -2.89554742 6.9493138 -1.5625 3.75 C-1.27503906 3.04359375 -0.98757813 2.3371875 -0.69140625 1.609375 C-0.46324219 1.07828125 -0.23507812 0.5471875 0 0 Z " fill="#474747" transform="translate(389,178)"/>
<path d="M0 0 C0.33 0 0.66 0 1 0 C1.07347656 1.01320313 1.07347656 1.01320313 1.1484375 2.046875 C1.22320312 2.93890625 1.29796875 3.8309375 1.375 4.75 C1.44460938 5.63171875 1.51421875 6.5134375 1.5859375 7.421875 C1.99850055 9.99066382 2.71160957 11.75841015 4 14 C2.35 14.33 0.7 14.66 -1 15 C-1.5625 13.0625 -1.5625 13.0625 -2 11 C-1.67 10.67 -1.34 10.34 -1 10 C-0.76712992 8.31816052 -0.58735834 6.6287584 -0.4375 4.9375 C-0.35371094 4.01839844 -0.26992188 3.09929687 -0.18359375 2.15234375 C-0.12300781 1.44207031 -0.06242187 0.73179687 0 0 Z " fill="#9F9F9F" transform="translate(405,256)"/>
<path d="M0 0 C1.32 0 2.64 0 4 0 C4.87867729 3.73437848 5.08912219 7.16774573 5 11 C3 10 3 10 2.1484375 7.71484375 C1.89320313 6.79832031 1.63796875 5.88179688 1.375 4.9375 C1.11460937 4.01839844 0.85421875 3.09929687 0.5859375 2.15234375 C0.39257812 1.44207031 0.19921875 0.73179687 0 0 Z " fill="#B0B0B0" transform="translate(228,258)"/>
<path d="M0 0 C5.57142857 5.14285714 5.57142857 5.14285714 6 9 C4.68 9 3.36 9 2 9 C1.34 6.03 0.68 3.06 0 0 Z " fill="#C4C4C4" transform="translate(458,268)"/>
<path d="M0 0 C2.83374881 3.20336822 3.5205537 5.78087253 4 10 C3.01 10 2.02 10 1 10 C-0.1577506 6.52674819 -0.06866652 3.63932552 0 0 Z " fill="#EAEAEA" transform="translate(249,266)"/>
<path d="M0 0 C2.02350324 3.03525486 2.32124018 4.19426202 2.625 7.6875 C2.69976562 8.49574219 2.77453125 9.30398438 2.8515625 10.13671875 C2.90054688 10.75160156 2.94953125 11.36648438 3 12 C1.68 11.34 0.36 10.68 -1 10 C-0.67 6.7 -0.34 3.4 0 0 Z " fill="#CACACA" transform="translate(249,258)"/>
<path d="M0 0 C3.63 0 7.26 0 11 0 C11 0.66 11 1.32 11 2 C7.37 2.33 3.74 2.66 0 3 C0 2.01 0 1.02 0 0 Z " fill="#F0F0F0" transform="translate(147,246)"/>
<path d="M0 0 C-0.33 0.99 -0.66 1.98 -1 3 C-5.29 2.34 -9.58 1.68 -14 1 C-14 0.67 -14 0.34 -14 0 C-4.58997722 -1.33257403 -4.58997722 -1.33257403 0 0 Z " fill="#DEDEDE" transform="translate(163,248)"/>
<path d="M0 0 C1.32 0.66 2.64 1.32 4 2 C4 3.98 4 5.96 4 8 C3.67 8 3.34 8 3 8 C3 6.35 3 4.7 3 3 C2.34 3 1.68 3 1 3 C1 4.65 1 6.3 1 8 C0.67 8 0.34 8 0 8 C-0.38063221 5.6739143 -0.71269945 3.33944736 -1 1 C-0.67 0.67 -0.34 0.34 0 0 Z " fill="#B4B4B4" transform="translate(316,248)"/>
<path d="M0 0 C1.52519276 0.08937803 3.04681929 0.24537146 4.5625 0.4375 C5.80193359 0.59025391 5.80193359 0.59025391 7.06640625 0.74609375 C7.70449219 0.82988281 8.34257813 0.91367187 9 1 C9 1.66 9 2.32 9 3 C2.9453125 3.1953125 2.9453125 3.1953125 1 3 C0.34 2.34 -0.32 1.68 -1 1 C-0.67 0.67 -0.34 0.34 0 0 Z " fill="#F5F5F5" transform="translate(79,273)"/>
<path d="M0 0 C0.66 0 1.32 0 2 0 C2.66 2.31 3.32 4.62 4 7 C2.68 6.67 1.36 6.34 0 6 C0 4.02 0 2.04 0 0 Z " fill="#DBDBDB" transform="translate(354,269)"/>
<path d="M0 0 C3.465 1.98 3.465 1.98 7 4 C6.34 4.66 5.68 5.32 5 6 C2.5 4.6875 2.5 4.6875 0 3 C0 2.01 0 1.02 0 0 Z " fill="#E8E8E8" transform="translate(406,269)"/>
<path d="M0 0 C0.433125 0.474375 0.86625 0.94875 1.3125 1.4375 C3.02309613 3.23686957 3.02309613 3.23686957 6 4 C5.67 5.65 5.34 7.3 5 9 C4.67 8.01 4.34 7.02 4 6 C3.01 6 2.02 6 1 6 C0.67 4.02 0.34 2.04 0 0 Z " fill="#B4B4B4" transform="translate(234,264)"/>
<path d="M0 0 C0.33 0.99 0.66 1.98 1 3 C-1.64 3.66 -4.28 4.32 -7 5 C-4.53846154 1.18461538 -4.53846154 1.18461538 -1.8125 0.25 C-1.214375 0.1675 -0.61625 0.085 0 0 Z " fill="#DEDEDE" transform="translate(412,247)"/>
<path d="M0 0 C-1.65 1.32 -3.3 2.64 -5 4 C-5.66 3.67 -6.32 3.34 -7 3 C-6.67 2.01 -6.34 1.02 -6 0 C-3 -1 -3 -1 0 0 Z " fill="#CACACA" transform="translate(410,252)"/>
<path d="M0 0 C0.66 1.32 1.32 2.64 2 4 C1.01 4.99 0.02 5.98 -1 7 C-1.66 6.67 -2.32 6.34 -3 6 C-3 5.34 -3 4.68 -3 4 C-2.34 4 -1.68 4 -1 4 C-0.67 2.68 -0.34 1.36 0 0 Z " fill="#D3D3D3" transform="translate(284,269)"/>
</svg>
